<svg id="Layer_1" xmlns="http://www.w3.org/2000/svg" viewBox="0 0 130 79"><style>.st0{fill:#fff}.st1{fill:#0e3b61}.st2{fill:#072743}.st3{fill:#072843}</style><title>Group 3</title><path class="st0" d="M59.7.7c.3.4.2 1 .1 1.5-.2 3.6-.4 7.8-.6 11.4-1.1.2-2.1.5-3.3.6-.2 1.2-.1 2.6-.2 3.9 11.5-1.2 22.7-3.1 34.5-3.6-1.4 4.1 1.9 8 2.7 11.4.1-2.5.7-5.2.6-7.6-.1-1.6-1.1-2.6-1.9-3.6-.2-.2-.6-.4-.4-.8 2.6-.3 5.5-.5 8.5-.6 3.6-.2 7.8-.9 10.3.7.1-.2-.3-.6-.2-.9 5.6 0 12.3-1.5 15.9 1.3.2.2.4.5.6.7 1.7 1.6 3.2 3.8 3.2 7 0 2.3-.4 4.8-1.2 6.6-1.1 2.2-3.1 3.8-4.8 5.4.5.1.8-.1 1.2-.1.1.3-.4.5-.6.6-3.8 3.3-7.8 6.9-11.4 10.3-6.4-.4-13.3.6-19.1 1.4-16.3 2.3-31.1 6.5-42.9 12.9.1-2.1.3-4.3.6-6.1-2.5 1.1-5.1 2.6-7.7 3.8.6-3.9.8-8.8.2-12.9-.8 3.9-1.6 8.4-1.8 12.6 0 .3.2.8.1 1.2-.2.6-2.2 1.5-2.8 1.9-2.9 1.9-5.6 3.8-8.6 5.6-.5-1.9-1-3.7-1.4-5.6-.7 2.5-1.2 5.1-1.8 7.7-.2.8-.3 1.9-.6 2.5-.4.7-1.6 1.5-2.4 2.1-2.4 2.1-4.9 4.1-7.3 6-2-11.9-3.7-24.3-6.7-35.5-.6-2.4-1.3-5.1-2.2-7.6-.3-.9-.5-1.8-.9-2.4-.2-.3-.5-.5-.9-.8-.3-.3-.5-.6-.8-.9-1.3-1-3.2-1.5-4.5-2.3 4-1 8.4-1.7 12.5-2.6 1-2.5.4-7.3.3-10.7-.2-3.8 0-7.3-.8-10.1 5.1-.7 11.1-3 15.9-.9.5.2 1.1.8 1.6.9.8.1 2.4-.4 3.6-.6 3.7-.5 7.4-1 10.8-1.6 5-.8 9.5-1.2 14.1-2.2.2 0 .2-.1.5 0"/><path class="st1" d="M16.9 78.9l-.2-.9c-.4-2.3-.8-4.6-1.1-6.9-1.6-9.6-3.2-19.5-5.6-28.6-.6-2.3-1.3-5.1-2.2-7.5l-.3-.9c-.2-.5-.3-1-.5-1.3-.1-.1-.2-.3-.4-.4l-.3-.3c-.2-.1-.3-.3-.4-.5-.1-.1-.2-.3-.3-.4-.7-.6-1.7-1-2.6-1.4-.6-.3-1.2-.5-1.8-.8L0 28.4l1.2-.3c2.3-.6 4.8-1 7.2-1.5 1.7-.3 3.4-.6 5-1 .7-2 .5-5.3.3-8.2 0-.7-.1-1.4-.1-2 0-1-.1-2-.1-2.9-.1-2.6-.1-5.1-.7-7.1l-.2-.6.6-.1c1.2-.2 2.5-.4 3.9-.7 4.2-.9 8.5-1.8 12.3-.1.2.1.5.3.7.4.3.2.6.4.8.4.5.1 1.4-.1 2.2-.3.4-.1.9-.2 1.3-.3 1.8-.3 3.7-.6 5.6-.9 1.7-.3 3.4-.5 5-.8 1.7-.3 3.4-.5 5.1-.7 3.1-.4 6-.8 9-1.5.2-.1.4-.1.7-.1h.2l.1.2c.4.5.3 1.1.3 1.5v.3c-.2 3.7-.4 7.9-.6 11.5v.4l-.4.1c-.4.1-.7.1-1.1.2l-1.8.3c0 .5-.1 1.1-.1 1.6v1.2c3.9-.4 7.9-.9 11.7-1.4 7.2-.9 14.6-1.8 22.2-2.2h.4c0-.1 0-.1.1-.2l.1-.3h.3c2.4-.3 5.2-.5 8.6-.6.7 0 1.3-.1 2-.1 2.7-.2 5.4-.4 7.5.4v-.1l.1-.4h.4c1.4 0 2.9-.1 4.3-.2 4.5-.3 9.1-.6 11.9 1.6.2.1.3.3.4.4l.3.3c1.5 1.4 3.4 3.7 3.3 7.4 0 1.6-.2 4.7-1.3 6.8-.9 1.9-2.4 3.3-3.9 4.6h.2l.1.4c.1.6-.4.9-.6 1-.1 0-.1.1-.1.1-4.3 3.7-8.1 7.2-11.4 10.3l-.2.2h-.2c-6.3-.4-13.3.6-19 1.3-17 2.4-31.4 6.7-42.7 12.9l-.7.4v-.9c.1-1.8.2-3.6.5-5.3-.9.4-1.8.9-2.8 1.4-1.3.7-2.7 1.4-4 2l-.8.4.1-.9c.5-3.2.6-6.4.5-9.2-.5 2.9-1 6.1-1.1 9v.3c.1.3.1.7 0 1-.2.6-1.1 1.1-2.3 1.8-.3.2-.5.3-.7.4L38 61.1c-2.4 1.6-4.6 3.1-7 4.5l-.6.3-.2-.7-.6-2.4c-.1-.4-.2-.8-.3-1.3l-.9 3.9-.4 2c0 .2-.1.4-.1.6-.1.7-.3 1.4-.6 2-.3.6-1.1 1.2-1.8 1.8-.2.2-.5.4-.7.5-2.5 2.1-5.1 4.2-7.3 6l-.6.6zM2.8 28.7c.1.1.3.1.4.2 1 .4 2 .9 2.9 1.5.2.1.3.3.5.5.1.1.2.3.3.4.1.1.2.2.3.2.2.2.5.4.6.6.3.4.5 1 .6 1.6l.3.9c.9 2.5 1.6 5.3 2.2 7.6 2.4 9.1 4 19 5.5 28.6.3 2 .7 4.1 1 6.1 2.1-1.6 4.4-3.5 6.6-5.4.2-.2.5-.4.7-.6.6-.5 1.3-1 1.5-1.4.2-.4.3-1.1.5-1.7 0-.2.1-.5.1-.7l.4-1.8c.4-2 .9-4 1.4-5.9h1c.3 1.1.5 2.1.8 3.2.2.6.3 1.2.5 1.7 2.2-1.3 4.2-2.7 6.4-4.1l1.6-1.1c.2-.1.4-.3.7-.4.5-.3 1.7-.9 1.9-1.2V57c0-.2-.1-.4-.1-.6.2-4.2 1.1-8.9 1.8-12.6h1c.5 3.3.5 7.7-.1 12.2 1.1-.5 2.1-1 3.1-1.6 1.3-.7 2.5-1.3 3.7-1.8l.9-.4-.2 1c-.3 1.6-.5 3.3-.6 5.2 11.3-6 25.5-10.2 42.2-12.5 5.7-.8 12.6-1.7 19-1.4 3.2-3 6.8-6.4 10.9-9.9l-1.1-.1 1.5-1.3c1.5-1.4 3.1-2.7 4-4.6.7-1.4 1.1-3.7 1.2-6.3.1-3.3-1.6-5.3-3-6.6-.1-.1-.2-.3-.4-.4l-.3-.3c-2.6-2-7-1.7-11.2-1.4-1.2.1-2.5.2-3.7.2.1.1.1.3 0 .5l-.2.7-.6-.4c-1.9-1.2-4.9-1-7.9-.8-.7 0-1.4.1-2.1.1-3.1.1-5.6.3-7.8.6l.3.4c.8.9 1.7 1.9 1.7 3.5.1 1.4-.1 2.9-.3 4.4-.1 1.1-.3 2.2-.3 3.2l-1 .1c-.2-1.1-.7-2.2-1.3-3.4-1-2.3-2.2-4.9-1.6-7.6-7.3.4-14.5 1.3-21.5 2.2-4 .5-8.2 1-12.3 1.4l-.6.1.1-.6c.1-.5.1-1.2.1-1.8 0-.7 0-1.4.1-2.1l.1-.4h.4l2.1-.3c.2 0 .5-.1.7-.1.2-3.5.4-7.5.6-11v-.9h-.1c-3 .6-6 1-9.1 1.5-1.6.2-3.3.5-5.1.7-1.6.3-3.3.5-5 .8-1.9.3-3.8.6-5.6.9-.4.1-.8.2-1.2.2-1 .2-1.9.4-2.5.3-.4-.1-.8-.3-1.2-.6-.2-.1-.4-.3-.5-.3-3.5-1.5-7.7-.7-11.7.2-1.2.2-2.3.5-3.4.6.5 2 .5 4.4.6 6.8 0 .9 0 1.9.1 2.9 0 .6.1 1.3.1 2 .2 3.2.4 6.8-.4 8.9l-.1.2-.3.1c-1.7.4-3.6.7-5.3 1.1-1.4 0-3.4.4-5.3.8zm88-14.2c-.9 2.6.3 5.1 1.3 7.6.2.4.4.8.5 1.2 0-.3.1-.6.1-.9.2-1.5.3-2.9.3-4.2-.1-1.2-.8-2-1.5-2.9l-.3-.3-.1-.1c-.1-.1-.2-.2-.3-.4zm18.7-.6z"/><path class="st2" d="M42.2 38.7c1.1-4.7 2.3-10.1 3.5-14.8.1-.3.6-2.1-.1-2-2.2.4-4.8 1-7 1.4.7 1.6-.1 3.4-.5 4.9-.9 3-1.4 6.2-2.4 8.8-1.6-4-3.2-8.1-4.7-12.1-1.7.3-3.4.7-5.2 1-1.8 4.8-3 10.2-4.6 15.2-1.5-4-2.8-8.1-4-12.3.2-.4.3-.8.4-1.2-3.2.6-6.3 1.3-9.5 1.9.2.5 1 .9 1.4 1.4 4.8 12.4 7.3 27.1 9.5 42 1-.6 1.8-1.5 2.8-2.3.7-.6 2.4-1.6 2.9-2.3.3-.4.5-1.5.6-2.2.9-4.1 1.8-7.9 2.8-11.8.4-1.6.7-3.2 1.4-4.5 1 3.8 1.9 7.6 3 11.2 2.3-1.4 4.5-2.8 6.7-4.3.6-6.2 1.5-12.1 3-18m5.2-17c.6 9.2-.8 18.7-.7 27.9 0 1.1.1 2.1-.1 3.1 2.5-1 4.9-2.2 7.3-3.3-.3-.5-.5-.9-.5-1.4-.2-2 .1-4.3.3-6.6.3-4.4.3-8.9.6-13.2.2-2.3 0-4.6.3-6.6.1-.5.6-1.1.4-1.5-2.6.6-5.2 1-7.6 1.6m25.2 3.7c1.1-2.1 2.1-4.4 3.4-6.2.1-.2.4-.5.6-.8.2-.2.9-.5.4-.7-.2-.1-.3.1-.4.1-5.8.7-11.9 1.4-17.8 2.2 0 1.9-.3 4.6-.1 6.6.7-.2 1-1 1.9-1.2 1.7-.5 4.1-.3 6-.8-2.8 4.6-5.3 9.4-7.7 14.4-2.3 5-4.5 10.3-5.8 16.3 2-.9 3.9-2 6-2.8 6.4-2.5 13.2-4.3 20.6-6 4.8-1.1 10-1.9 15.2-2.5 3.8-.4 7.9-1 12.1-1.2 1.4-.1 3.3.2 4.4-.1.5-.1 1.3-1.2 1.8-1.7 1.6-1.6 3.1-2.9 4.7-4.2.3-.2.9-.4.8-.7-10.3.5-20.3 1.1-29.6 2.5-4.6.7-9 1.7-13.2 2.8-2.2.6-4.3 1-6.4 1.6-2.1.6-4.1 1.3-6.1 1.8 2-6.8 6-13.4 9.2-19.4m7.6-8.4c.8 1.3.1 2.3-.5 3.6-1 2.4-1.9 4.8-2.8 7.1-1.6 3.9-3.1 7.9-4.9 11.4 2.5-.5 4.9-1 7.4-1.4-.8-1.2.3-2.6.6-3.7l6.3-.9c.2 1.1 1.1 2.3.5 3.6l6.6-.9c-.9-1.4-1.3-3.3-2-5.3-1-2.8-1.9-5.6-2.9-8.6-.6-1.7-1.8-3.9-1.1-5.6h-.1c-2.3.3-4.9.3-7.1.7m29.1 3.8c.2-2.9-1.1-5.1-3.7-5.6-3-.6-6.8.5-10.3.4.1.4.6.7.7 1.1.6 1.5.1 3.9 0 5.9-.1 2.4-.4 5.3-.5 7.8-.1 1.7 0 3.3-.4 4.5-.1.3-.4.5-.3.8 1.9-.3 4.1-.5 6.1-.8-.6-1.5-.1-4.5.1-6.4.4.8.8 1.6 1.4 2.4.7 1.2 1.8 2.4 1.1 3.8 2.4-.2 4.9-.4 7.5-.6-1.4-2.5-3.4-5-5-7.6 1.7-1.4 3.1-2.9 3.3-5.7M123 31.6c4.5-3.2 6-12.2 1.3-15.6-2.8-2-7.7-1.2-11.9-1.1.2.6.7 1 .7 1.9.1 1.2-.2 2.7-.3 4.1-.2 2.7-.5 5.5-.6 7.9-.2 2.2-.1 4.1-.8 5.3 4.8-.7 8.5-.3 11.6-2.5M33.7 6.7c.5.9.4 2.5.4 4.1 0 3.4.2 8.2-.2 10.8 1.4-.3 2.9-.6 4.3-.9-.4-.7-.2-1.6-.2-2.6 0-1.7 0-3.8.1-5.9.1-2.3-.3-4.8.4-6.1-1.8 0-3.2.3-4.8.6M26 22.5c2.6-1.3 4.6-3.3 5.5-6.1 1-3.1.3-6.9-1.4-8.8C28.6 6 26.3 5 23 5.3c-2.4.2-4.6.9-7 1.1.4 6.1.6 12.1.8 18.3 3.2-.8 6.5-.9 9.2-2.2M40.8 5.6c-.1 4.9-.2 10.2-.3 14.8 1.2-.4 2.7-.5 3.7-.8 0-2 0-3.9.2-5.7 1.2-.2 2.4-.4 3.5-.6.1-1.2.1-2.4.1-3.6-1 .4-2.4.5-3.6.7 0-.6 0-1.3.1-1.7 1.3-.2 2.5-.5 3.9-.6-.1-1.5.4-2.7 0-3.9-2.5.5-5.1.9-7.6 1.4M50.6 4c-.2 4.9-.4 9.9-.6 14.6 1.2-.2 2.4-.5 3.7-.7 0-1.9.1-3.7.3-5.5 1.2-.2 2.3-.4 3.5-.6 0-1.3.2-2.4.2-3.6-1 .3-2.5.6-3.6.6.2-.4 0-1.2.1-1.6 1.2-.2 2.3-.4 3.5-.6.1-1 .1-1.9.1-2.6 0-.4.3-.9-.1-1.1-2.3.3-4.8.7-7.1 1.1M59.7.7c.3.4.2 1 .1 1.5-.2 3.6-.4 7.8-.6 11.4-1.1.2-2.1.5-3.3.6-.2 1.2-.1 2.6-.2 3.9 11.5-1.2 22.7-3.1 34.5-3.6-1.4 4.1 1.9 8 2.7 11.4.1-2.5.7-5.2.6-7.6-.1-1.6-1.1-2.6-1.9-3.6-.2-.2-.6-.4-.4-.8 2.6-.3 5.5-.5 8.5-.6 3.6-.2 7.8-.9 10.3.7.1-.2-.3-.6-.2-.9 5.6 0 12.3-1.5 15.9 1.3.2.2.4.5.6.7 1.7 1.6 3.2 3.8 3.2 7 0 2.3-.4 4.8-1.2 6.6-1.1 2.2-3.1 3.8-4.8 5.4.5.1.8-.1 1.2-.1.1.3-.4.5-.6.6-3.8 3.3-7.8 6.9-11.4 10.3-6.4-.4-13.3.6-19.1 1.4-16.3 2.3-31.1 6.5-42.9 12.9.1-2.1.3-4.3.6-6.1-2.5 1.1-5.1 2.6-7.7 3.8.6-3.9.8-8.8.2-12.9-.8 3.9-1.6 8.4-1.8 12.6 0 .3.2.8.1 1.2-.2.6-2.2 1.5-2.8 1.9-2.9 1.9-5.6 3.8-8.6 5.6-.5-1.9-1-3.7-1.4-5.6-.7 2.5-1.2 5.1-1.8 7.7-.2.8-.3 1.9-.6 2.5-.4.7-1.6 1.5-2.4 2.1-2.4 2.1-4.9 4.1-7.3 6-2-11.9-3.7-24.3-6.7-35.5-.6-2.4-1.3-5.1-2.2-7.6-.3-.9-.5-1.8-.9-2.4-.2-.3-.5-.5-.9-.8-.3-.3-.5-.6-.8-.9-1.3-1-3.2-1.5-4.5-2.3 4-1 8.4-1.7 12.5-2.6 1-2.5.4-7.3.3-10.7-.2-3.8 0-7.3-.8-10.1 5.1-.7 11.1-3 15.9-.9.5.2 1.1.8 1.6.9.8.1 2.4-.4 3.6-.6 3.7-.5 7.4-1 10.8-1.6 5-.8 9.5-1.2 14.1-2.2.2 0 .2-.1.5 0"/><path class="st3" d="M21.7 19.3c-.1-2.9-.3-6.2-.2-9.1 1.4-.4 3.6-.3 4.5.7 1.3 1.5 1 5.1-.4 6.6-1 1.3-2.4 1.6-3.9 1.8m95.4 9.5c.3-3.1.4-6.4.7-9.5.1-.1.1-.1.2-.1 1.6 0 3.1.3 3.8 1.3 1.3 1.8.6 5.7-1 7.1-.9.8-2.3 1.2-3.7 1.2m-15.9-5.2c0-1.4.1-2.8.2-4.1 4.2-1.2 3.2 4.8-.2 4.1m-17.7.7c.7 1.4 1 3 1.5 4.6-1 .2-2.1.3-3.2.4.5-1.8 1.3-3.3 1.7-5"/></svg>