<?xml version="1.0" encoding="utf-8"?>
<!-- Generator: Adobe Illustrator 21.0.0, SVG Export Plug-In . SVG Version: 6.00 Build 0)  -->
<svg version="1.1" id="Layer_1" xmlns="http://www.w3.org/2000/svg" xmlns:xlink="http://www.w3.org/1999/xlink" x="0px" y="0px"
	 viewBox="0 0 124 108" style="enable-background:new 0 0 124 108;" xml:space="preserve">
<style type="text/css">
	.st0{fill:#FEFEFE;}
	.st1{fill:#8C8C8C;}
</style>
<g>
	<g>
		<g>
			<path class="st0" d="M108.1,91.5c7.8-10.3,12.1-23.1,12-36c0.1-12.9-4.2-25.8-12-36c-0.1-0.1,0-0.2,0-0.3c0.1-0.1,0.2-0.1,0.2,0
				l0,0c5,4.4,9,10,11.6,16.3c2.7,6.3,4,13.1,4,20c-0.1,3.4-0.4,6.8-1,10.2c-0.7,3.3-1.6,6.7-3,9.8c-2.6,6.3-6.6,11.9-11.6,16.3l0,0
				c-0.1,0.1-0.2,0.1-0.3,0C108,91.6,108,91.5,108.1,91.5z"/>
		</g>
		<g>
			<path class="st0" d="M15.6,91.7c-5-4.4-9-10-11.6-16.3c-1.4-3.1-2.3-6.4-3-9.8c-0.6-3.4-0.9-6.8-1-10.2c0.1-6.8,1.3-13.7,4-20
				c2.6-6.3,6.6-11.9,11.6-16.3l0,0c0.1-0.1,0.2-0.1,0.3,0c0.1,0.1,0.1,0.2,0,0.2c-7.8,10.3-12.1,23.1-12,36
				c-0.1,12.9,4.2,25.8,12,36c0.1,0.1,0,0.2,0,0.3C15.8,91.8,15.7,91.8,15.6,91.7L15.6,91.7z"/>
		</g>
		<path class="st0" d="M88.2,91.2c-2.1-1.1-3.9-2.5-5.7-4c-3.5-3.1-6.6-6.6-9.4-10.4c-1.5-2-2.9-4.1-4.3-6.1
			c5.1-0.9,8.6-2.8,12.3-5.5c5.3-3.9,9.8-11.6,11.1-19c1.4-7.3-0.2-14.5-5-19.2c-3.3-3.2-7.9-5.3-21.3-5.3H42.4L28.9,94.1h17.7
			L50.2,75c1.6,1.6,20.9,19.8,30.4,19.8h11.4c0,0,2.7-1.5,3.1-1.8C92.5,93.1,90.3,92.3,88.2,91.2z M53.8,54.8l3.1-16.7h12.9
			c4.7,0,7.5,1.8,7.5,5.6c0,5.2-3.4,11.1-11.3,11.1H53.8z"/>
		<path class="st0" d="M101.7,77.7c-0.5-5.2-1.8-10.3-3.4-15.2c-1.7-5.1-3.9-10-6.3-14.7c-0.4,1.8-1.1,3.6-1.8,5.4
			c2,3.4,3.9,6.8,5.6,10.4c2.1,4.5,3.8,9.3,4.7,14.2c0.5,3.6,1,12.3-4.6,14.9c-0.4,0.2-0.8,0.3-1.2,0.4h0c-0.2,0.1-0.5,0.2-0.7,0.2
			c-0.1,0-0.1,0-0.1,0c-1.2,0.2-2.5,0.2-3.7,0c-2.5-0.3-4.9-1.3-7.2-2.4c-4.6-2.3-8.7-5.4-12.6-8.7c-7.6-6.8-14.2-14.7-20.1-23
			c-4.2-6-8.1-12.4-11.2-19v0c-1.2-2.5-2.3-5-3.3-7.6c-1.8-4.7-3.2-9.6-3.8-14.4c-0.3-2.4-0.3-4.9,0.1-7.1c0.4-2.2,1.4-4.2,2.9-5.2
			c1.5-1.1,3.6-1.3,5.8-0.9c2.2,0.4,4.5,1.2,6.6,2.3c4.3,2.2,8.4,5.1,12.1,8.4c2.3,2,4.5,4.1,6.6,6.2c3,0,5.5,0.1,7.7,0.3
			c-3.4-3.7-7.1-7.3-11.1-10.5c-4.1-3.3-8.5-6.3-13.5-8.6c-2.5-1.1-5.1-2.1-8-2.4c-2.8-0.4-6.2-0.1-8.9,1.9c-2.7,2-3.9,5.1-4.4,7.9
			c-0.5,2.8-0.3,5.6,0,8.3c0.8,5.3,2.4,10.4,4.4,15.2c1.6,3.9,3.5,7.6,5.5,11.3c3,5.4,6.4,10.6,10,15.6C54.3,69,61.4,76.6,69.5,83
			c0.7,0.5,1.4,1.1,2.1,1.6l-0.3-0.2c9.3,6.8,14.3,9.1,17.3,10c0,0,0,0,0,0c0.2,0.1,0.5,0.1,0.7,0.2c0,0,0.1,0,0.1,0
			c0.2,0,0.4,0.1,0.6,0.1c0,0,0.1,0,0.1,0c0.2,0,0.3,0,0.5,0.1c0,0,0.1,0,0.1,0c0.1,0,0.3,0,0.4,0c0,0,0.1,0,0.1,0
			c0.4,0,0.8,0,1.1,0c6.7,0,8.4-5.9,9-9c0-0.1,0.1-0.2,0.1-0.3C101.9,82.9,102,80.3,101.7,77.7z"/>
	</g>
	<g>
		<path class="st1" d="M29.1,95.4l-3.7-3.2c0,0-0.5,0.2-0.5,0.2c0,0,1.3,1.5,5.7,4.9c2.5,1.9,5.9,3.8,9,5.2c1.6,0.7,3.1,1.3,4.7,2
			l1.2,0.5l1.3,0.4c0.8,0.3,1.6,0.5,2.5,0.7c6.7,1.7,13.6,2,20.4,1.1c10.1-1.4,18.6-4.8,26.2-11.7c0,0-1.1,0.5-2.1,0.8
			c-1,0.3-2,0.5-2,0.5c-3.6,2.6-6.4,3.5-10.5,5.1c-0.8-0.7-1.6-1.3-2.4-2c2.2-1.1,3.8-1.9,5.7-3.3L81,96.2c-1.6,0.9-2.7,1.2-4.3,1.9
			c-3.3-2.7-12.2-9.6-12.2-9.7c-1.5-1.1-3-2.2-4.6-3.3l-1.3,0.4c1.6,1.3,3.2,2.5,4.8,3.8c-1.1,0.8-2.2,1.5-3.3,2.2
			c-4.3,2.7-9,4.9-13.9,6.1c0,0-0.1,0-0.1,0c-1.3-1-2.1-1.4-3.5-2.3l-1.6,0c1.3,1.1,2.1,1.6,3.5,2.7c-2.6,0.5-5.2,0.6-7.8,0.1
			c-1.3-0.8-2.8-1.9-4.1-2.8L29.1,95.4z M78.3,100c0.9,0.6,1.8,1.2,2.7,1.8c-3.8,1.5-7.7,2.5-11.8,3.1c-2.8,0.4-5.7,0.5-8.6,0.4
			c2.4-0.2,4.7-0.6,7-1.1C71.3,103.2,74.9,101.8,78.3,100z M39.9,99.9c2.3,0.3,4.6,0.2,6.8-0.2c1.4,1.1,2.9,2.1,4.4,3.1
			c-0.7-0.1-1.5-0.1-2.2-0.2c-1.8-0.3-3.6-0.7-5.4-1.2c-0.9-0.4-1.9-0.8-2.8-1.2C40.4,100.1,40.1,100,39.9,99.9z M61.5,93.8
			c1.4-0.9,2.8-1.8,4.1-2.8c3.5,2.6,6.9,5.1,10.5,7.5c-2.9,1.3-6,2.4-9.1,3.1c-4.7,1.2-9.5,1.6-14.3,1.4c-1.5-1.2-2.9-2.5-4.5-3.6
			C53,98.3,57.4,96.2,61.5,93.8z"/>
		<path class="st1" d="M98.7,80.6c0-0.7-0.1-1.3-0.1-1.8c-1.6,2.4-3.3,4.8-5.2,7l-3.6-3.6l-8.9-8.9l-0.7-0.7
			c4.4-3.6,8.3-7.8,11.7-12.4c-0.4-0.7-0.8-1.4-1.2-2.2c-0.6,0.9-1.1,1.8-1.8,2.7c-2.7,4-5.7,7.9-8.8,11.8l-2.8-2.8c0,0,0,0,0,0
			c-0.4,0.2-0.8,0.4-1.2,0.5l3.1,3.2c-1.3,1-2.6,2-3.9,3c0.2,0.2,0.3,0.4,0.5,0.6c0,0,0.1,0.1,0.1,0.1c1.2-1.2,2.3-2.4,3.4-3.7
			l0.7,0.7l8.9,8.9l3.6,3.6c-1.1,0.9-2.3,1.8-3.4,2.7c0,0,0,0,0.1,0c0.2,0.1,0.4,0.2,0.6,0.3c1-0.9,1.9-1.9,2.8-3l0.8,0.8l2.2,2.2
			l0.3,0.3c0.3-0.3,0.6-0.6,0.9-0.9l-0.3-0.3l-2.2-2.2l-0.8-0.8C95.4,84.3,97.1,82.5,98.7,80.6z"/>
		<path class="st1" d="M35.7,12.4c0.2-0.2,0.5-0.3,0.7-0.4c1-0.6,2-1.2,3-1.7c1.7-0.9,3.5-1.6,5.2-2.2c-0.7-0.3-1.3-0.5-1.9-0.7
			c-1.3,0.5-2.6,1.1-3.9,1.7c-1.8,0.9-3.5,1.9-5.1,3c-0.1,0.5-0.1,1.1-0.2,1.7c0,0,0.1-0.1,0.1-0.1C34.4,13.3,35.1,12.8,35.7,12.4z"
			/>
		<path class="st1" d="M34.1,20.2c0,0.3,0.1,0.5,0.1,0.8c1.2-0.9,2.5-1.8,3.8-2.7c2.6-1.7,5.3-3.2,8.1-4.5c1.7-0.8,3.5-1.4,5.3-2
			c-0.8-0.5-1.6-1.1-2.4-1.5c-1.3,0.5-2.5,1.1-3.8,1.8c-2.8,1.5-5.5,3.3-8,5.2C36.2,18.2,35.2,19.2,34.1,20.2z"/>
		<path class="st1" d="M113.3,47.5c-0.4-2.6-1-5.3-1.8-7.8c-0.8-2.6-1.8-5.1-3-7.5c-1.2-2.4-2.6-4.8-4.2-7c-1.6-2.3-3.5-4.4-5.4-6.4
			c-2-2-4.1-3.8-6.4-5.4c-2.2-1.6-4.6-3-7-4.2c-2.2-1-5.2-2.2-7.5-3c-2.5-0.8-5.1-1.4-7.8-1.8c-2.6-0.4-5.2-0.6-7.8-0.6H62
			c-2.1,0-4.2,0.2-6.3,0.4c0.6,0.4,1.2,0.7,1.8,1.1C59,5.1,60.5,5,62,5h0.2c2.5,0,5.1,0.2,7.6,0.6c1.9,0.3,3.8,0.7,5.6,1.2
			c-3.9-0.6-7.9-0.7-11.8-0.4C62.4,6.6,61.2,6.8,60,7c0.9,0.7,1.9,1.4,2.9,2.2c0.3,0,0.6-0.1,1-0.1c4.8-0.5,9.6-0.3,14.4,0.6
			c1.3,1.4,2.6,2.8,3.9,4.2c-3.8,0.3-7.5,1.2-11.1,2.5c0.7,0.6,1.3,1.3,2,2c3.5-1.3,7.1-2.2,10.8-2.6c0,0,0.1,0,0.1,0
			c2.9,2.8,5.8,5.6,8.9,8.1c-1,1-2.1,1.9-3.1,2.9c0.3,0.4,0.6,0.7,0.9,1.1c0,0,0,0,0,0c1-1.1,2-2.1,3-3.2c2.4,2.9,5,5.7,7.6,8.4
			c0,0.2,0,0.3-0.1,0.5c-0.8,4.9-2.5,9.7-4.6,14.2c-0.4,0.8-0.8,1.6-1.2,2.5c0.8,1.7,1.6,3.4,2.3,5.2c2.7,2.6,5.5,5.3,8.2,7.9
			c-0.8,2.6-1.8,5.1-2.9,7.6c-0.1,0.2-0.2,0.4-0.3,0.6c0.2,1,0.4,1.9,0.5,2.9c0.5-0.8,1.1-1.7,1.5-2.5c1.2-2.2,2.2-4.4,3-6.7
			c1.1,1,2.1,1.9,3.2,2.9c-0.2,1-0.5,1.9-0.8,2.9c-0.8,2.5-1.8,4.9-3,7.3c-0.5,1-1.1,2.1-1.7,3.1c-0.1,0.3-0.3,0.5-0.4,0.8
			c-0.4,0.7-0.9,1.4-1.4,2.1c0,0.1-0.1,0.1-0.1,0.2c-0.1,0.6-0.2,1.2-0.3,1.8l-0.1,0.3c-0.1,0.3-0.1,0.6-0.2,0.8
			c0.4-0.5,0.8-0.9,1.1-1.4c1.6-2.2,3-4.6,4.2-7c1.2-2.4,2.2-4.9,3-7.5c0.8-2.5,1.4-5.1,1.8-7.8c0.4-2.6,0.6-5.3,0.6-7.9
			C113.9,52.8,113.7,50.1,113.3,47.5z M110.2,40.1c0.1,0.4,0.2,0.7,0.3,1.1c-0.1-0.1-0.2-0.2-0.2-0.3c-0.1-0.5-0.2-1-0.3-1.6
			C110,39.6,110.1,39.9,110.2,40.1z M102,24.6c2.1,3.4,3.7,7,4.8,10.8c0.2,0.7,0.3,1.3,0.4,2c-1.3-1.4-2.6-2.8-4-4.2
			c0.1-2.5-0.1-5-0.8-7.4C102.3,25.4,102.1,25,102,24.6C102,24.6,102,24.6,102,24.6z M97.8,19.8C97.8,19.8,97.8,19.8,97.8,19.8
			c0,0.1,0,0.1-0.1,0.1C97.8,19.8,97.8,19.8,97.8,19.8z M83.7,13.8C83.7,13.8,83.7,13.8,83.7,13.8c-1.3-1.3-2.6-2.5-3.9-3.7
			c0.7,0.2,1.5,0.3,2.2,0.5c3.6,1,7.1,2.6,10.4,4.6c-0.2-0.1-0.4-0.2-0.7-0.3C89.1,14,86.4,13.7,83.7,13.8z M93,23.8
			c-2.3-2.8-4.8-5.5-7.4-8.1c3.3-0.1,6.6,0.3,9.6,1.7c0.9,0.8,1.7,1.5,2.5,2.3c-0.2,0.1-0.5,0.4-1,0.8C95.5,21.6,94.2,22.6,93,23.8z
			 M93.8,24.6c1.4-1.5,2.8-3.1,4.1-4.8c0.8,0.8,1.5,1.6,2.2,2.4c1.3,2.9,1.6,6.1,1.4,9.3C99,29.1,96.4,26.7,93.8,24.6z M106.2,62.5
			c-3.1-3.3-6.2-6.5-9.3-9.7c0.7-1.3,1.4-2.6,2.1-4c2-4.4,3.6-9.1,4.1-14c1.5,1.4,3,2.8,4.5,4.2c0.9,4.7,1,9.6,0.4,14.4
			C107.7,56.5,107,59.5,106.2,62.5z M112,63.2c-0.2,1.6-0.6,3.1-1,4.7c-1-1.1-2-2.2-3-3.3c1.2-3.5,2.2-7.1,2.6-10.8
			c0.5-4.1,0.4-8.2-0.3-12.3c0.1,0.1,0.2,0.2,0.3,0.2c0.6,2,1,4,1.3,6c0.4,2.6,0.6,5.2,0.6,7.7C112.6,58,112.4,60.6,112,63.2z"/>
		<path class="st1" d="M22.4,77.2c0.5-5,2.1-9.9,4.2-14.6c0.5-1.2,1.1-2.4,1.7-3.6c1.5,1.4,2.9,2.8,4.4,4.3l0.2-1.3
			c-1.3-1.3-2.6-2.7-3.9-4c0,0-0.1-0.1-0.1-0.1c2-3.9,4.3-7.6,6.8-11.2l0.2-1.2c-0.2-0.4-0.4-0.7-0.6-1c-3.2,3.6-6,7.4-8.4,11.6
			c-3.1-3-6.2-6-9.3-8.9c0.8-2.6,1.7-5.1,2.8-7.6c1.3-2.8,2.8-5.5,4.5-8.1c0.9-1.5,2-2.9,3-4.3c-0.1-0.2-0.1-0.4-0.2-0.6
			c-3.6,3.6-6.7,7.7-9.1,12.2c-1.2,2.1-2.1,4.4-2.9,6.7c-0.8-0.7-1.5-1.4-2.3-2.1c2-8.6,6.3-16.6,12.5-23.1l0.1,0.1l0.4,0.4
			c-0.1-0.6-0.2-1.2-0.3-1.9c0-0.2,0-0.4-0.1-0.6c-0.2,0.2-0.4,0.3-0.5,0.5c0,0-0.1,0-0.1,0.1c-9.7,9.4-15.6,23-15.6,36.6
			c0,6.9,1.3,13.7,3.9,20c0.3,0.8,0.7,1.6,1,2.4l0.6,1.2l0.6,1.1c0.8,1.5,1.7,2.9,2.6,4.4c1.8,3,4,5.6,6.5,8.1
			c0.6,0.5,1.2,1.1,1.9,1.7l0.6-3c0,0,0,0,0,0l0,0l0.6-3.1l-0.6,0.6l-1.1,1.2l-0.1,0.2c-1-1.1-2.1-2.2-3-3.4c-0.8-2.5-1.1-5.1-1-7.7
			c2.1,2,4.2,4,6.4,5.8l0.1-0.6C26.8,81.8,24.6,79.5,22.4,77.2C22.4,77.2,22.4,77.2,22.4,77.2z M13.1,57c-0.2,2.4-0.3,4.7-0.2,7.1
			c-0.5-2.9-0.8-5.7-0.8-8.6c0-4.1,0.5-8.1,1.4-12.1c0.7,0.8,1.4,1.6,2.2,2.4C14.4,49.4,13.5,53.1,13.1,57z M20.7,83.2
			c-0.5-0.9-1.1-1.7-1.6-2.6c-0.7-1.7-1.4-3.4-1.9-5.2c-0.2-0.7-0.3-1.5-0.5-2.2c1.2,1.3,2.4,2.6,3.7,3.9c-0.1,2.3,0.2,4.6,0.8,6.8
			C21,83.6,20.9,83.4,20.7,83.2z M20.6,75.5c-1.4-1.3-2.8-2.6-4.2-3.9c-0.9-4.7-1.1-9.6-0.6-14.3c0.3-3.2,0.9-6.3,1.8-9.4
			c2.9,3.1,5.9,6.3,8.9,9.3c-0.8,1.4-1.5,2.9-2.2,4.4C22.3,65.9,20.9,70.6,20.6,75.5z"/>
		<path class="st1" d="M37.4,31.6l1,1l0.3-1.5l-2.3-2.3C36.7,29.7,37,30.6,37.4,31.6z"/>
		<g>
			<path class="st1" d="M104,91.3c0.2,0.1,0.3,0.2,0.5,0.3c0.1,0.1,0.2,0.3,0.3,0.5c0.1,0.2,0.1,0.4,0.1,0.6c0,0.2,0,0.4-0.1,0.6
				c-0.1,0.2-0.2,0.3-0.3,0.5c-0.1,0.1-0.3,0.2-0.5,0.3c-0.2,0.1-0.4,0.1-0.6,0.1c-0.2,0-0.4,0-0.6-0.1c-0.2-0.1-0.3-0.2-0.5-0.3
				c-0.1-0.1-0.2-0.3-0.3-0.5c-0.1-0.2-0.1-0.4-0.1-0.6c0-0.2,0-0.4,0.1-0.6c0.1-0.2,0.2-0.3,0.3-0.5c0.1-0.1,0.3-0.2,0.5-0.3
				c0.2-0.1,0.4-0.1,0.6-0.1C103.6,91.2,103.8,91.3,104,91.3z M102.9,91.5c-0.2,0.1-0.3,0.2-0.4,0.3c-0.1,0.1-0.2,0.2-0.3,0.4
				c-0.1,0.2-0.1,0.3-0.1,0.5c0,0.2,0,0.3,0.1,0.5c0.1,0.2,0.1,0.3,0.3,0.4c0.1,0.1,0.2,0.2,0.4,0.3c0.1,0.1,0.3,0.1,0.5,0.1
				c0.2,0,0.3,0,0.5-0.1c0.1-0.1,0.3-0.2,0.4-0.3c0.1-0.1,0.2-0.2,0.3-0.4c0.1-0.2,0.1-0.3,0.1-0.5c0-0.2,0-0.3-0.1-0.5
				c-0.1-0.2-0.1-0.3-0.3-0.4c-0.1-0.1-0.2-0.2-0.4-0.3c-0.2-0.1-0.3-0.1-0.5-0.1C103.2,91.4,103.1,91.5,102.9,91.5z M102.9,93.5
				v-1.7h0.6c0.2,0,0.3,0,0.4,0.1c0.1,0.1,0.1,0.2,0.1,0.3c0,0.1,0,0.1,0,0.2c0,0.1-0.1,0.1-0.1,0.1c0,0-0.1,0.1-0.1,0.1
				c-0.1,0-0.1,0-0.2,0l0.5,0.7h-0.2l-0.5-0.7h-0.3v0.7H102.9z M103.6,92.6c0.1,0,0.1,0,0.2,0c0,0,0.1,0,0.1-0.1c0,0,0-0.1,0-0.2
				c0-0.1,0-0.1,0-0.1c0,0-0.1-0.1-0.1-0.1c0,0-0.1,0-0.1,0c0,0-0.1,0-0.1,0h-0.4v0.6h0.3C103.4,92.6,103.5,92.6,103.6,92.6z"/>
		</g>
	</g>
</g>
</svg>
