<?xml version="1.0" encoding="utf-8"?>
<!-- Generator: Adobe Illustrator 21.0.0, SVG Export Plug-In . SVG Version: 6.00 Build 0)  -->
<svg version="1.1" id="Layer_1" xmlns="http://www.w3.org/2000/svg" xmlns:xlink="http://www.w3.org/1999/xlink" x="0px" y="0px"
	 viewBox="0 0 124 114" style="enable-background:new 0 0 124 114;" xml:space="preserve">
<style type="text/css">
	.st0{fill:#231F20;}
	.st1{fill:#BBBDBF;}
	.st2{fill:#F06022;}
</style>
<g>
	<g>
		<g>
			<g>
				<path class="st0" d="M4.5,87.4h13.7c3.2,0,3.8,1.3,3.8,3.7c0,4.2-2.3,6.1-5.3,6.1h-1.3l4.8,6.8H12l-3.4-5.8L7.1,104H0L4.5,87.4z
					 M9.4,95.5h3.2c1.6,0,2.3-1.2,2.3-2.3c0-0.8-0.6-1.2-1.5-1.2h-3.1L9.4,95.5z"/>
				<path class="st0" d="M29.7,87.4h12.4V104h-7.2v-2.4h-5.9l-1.4,2.4h-7.9L29.7,87.4z M34.9,91.6L34.9,91.6l-3.7,6h3.7V91.6z"/>
				<path class="st0" d="M46.6,87.4h8.1l1.5,9.6h0l2.5-9.6H66L61.5,104h-7.9l-1.9-8.6h0l-2.3,8.6h-7.2L46.6,87.4z"/>
				<path class="st0" d="M68.3,87.4h12.5c2.5,0,4.9,0.9,4.9,4.7c0,2.1-0.6,4.2-1.8,7.3c-1.3,3.4-4.2,4.6-6.6,4.6H63.7L68.3,87.4z
					 M72.1,99.6h2.6c1.6,0,2.6-1.3,2.9-2.7c0.3-1.4,0.5-2,0.5-2.4c0-1.1-0.5-1.6-1.9-1.6h-2.3L72.1,99.6z"/>
				<path class="st0" d="M89,100.2l-3.5-12.8h7.8l0.9,7.3h0.1l4.2-7.3h8.2L94.7,104h-8.5L89,100.2z"/>
				<path class="st0" d="M123.5,89.4c-1-1.4-3.5-2.1-7.8-2.1c-6.2,0-9.9,1.7-11.5,5.2c-0.6,1.3-0.7,2.4-0.2,3.2
					c0.4,0.8,1.3,1.3,2.6,1.5l6.5,1c0.2,0,0.4,0.1,0.5,0.2c0.1,0.1,0,0.3,0,0.4c-0.2,0.5-0.8,1.1-2.8,1.1c-0.9,0-1.5-0.1-1.8-0.3
					c-0.1-0.1-0.3-0.3-0.1-0.8l0.1-0.4h-7.9l-0.1,0.2c-0.6,1.4-0.7,2.6-0.1,3.5c1.2,1.9,4.8,2.1,7.8,2.1c6.9,0,10.9-1.8,12.7-5.7
					c0.6-1.2,0.6-2.3,0.2-3.1c-0.5-0.9-1.6-1.5-3.3-1.8l-6.8-1.1c-0.2,0-0.3-0.1-0.3-0.1c0,0,0-0.1,0.1-0.3c0.3-0.6,1.2-1,2.7-1
					c0.7,0,1.3,0.1,1.6,0.3c0.3,0.1,0.5,0.3,0.2,0.9l-0.2,0.4h7.7l0.1-0.2C124.1,91.3,124.1,90.2,123.5,89.4z"/>
			</g>
			<g>
				<g>
					<path class="st1" d="M91.3,64.3c0-0.5-0.1-1-0.1-1.4c-1.3,1.9-2.6,3.8-4.1,5.6l-2.8-2.9l-7.1-7.1L76.6,58
						c3.5-2.9,6.6-6.3,9.3-9.9c-0.3-0.6-0.6-1.1-0.9-1.7c-0.5,0.7-0.9,1.5-1.4,2.2c-2.2,3.2-4.6,6.3-7.1,9.4l-2.3-2.3c0,0,0,0,0,0
						c-0.3,0.2-0.6,0.3-0.9,0.4l2.5,2.5c-1,0.8-2.1,1.6-3.1,2.4c0.1,0.2,0.3,0.3,0.4,0.5c0,0,0.1,0.1,0.1,0.1c0.9-1,1.9-1.9,2.7-3
						l0.5,0.5l7.1,7.1l2.9,2.8c-0.9,0.7-1.8,1.5-2.7,2.1c0,0,0,0,0.1,0c0.2,0.1,0.3,0.2,0.5,0.2c0.8-0.8,1.5-1.5,2.2-2.4l0.6,0.6
						l1.8,1.8l0.3,0.3c0.3-0.2,0.5-0.4,0.7-0.7l-0.3-0.3l-1.8-1.8l-0.6-0.6C88.6,67.2,90,65.8,91.3,64.3z"/>
					<path class="st1" d="M41,9.8c0.2-0.1,0.4-0.2,0.6-0.3C42.4,9,43.2,8.6,44,8.2c1.4-0.7,2.8-1.3,4.2-1.8c-0.5-0.2-1-0.4-1.5-0.6
						c-1.1,0.4-2.1,0.9-3.1,1.4c-1.4,0.7-2.8,1.5-4.1,2.4c-0.1,0.4-0.1,0.9-0.1,1.3c0,0,0.1-0.1,0.1-0.1C40,10.5,40.5,10.2,41,9.8z"
						/>
					<path class="st1" d="M39.8,16c0,0.2,0.1,0.4,0.1,0.7c1-0.8,2-1.5,3.1-2.1c2.1-1.4,4.2-2.6,6.5-3.6c1.4-0.6,2.8-1.1,4.2-1.6
						c-0.6-0.4-1.3-0.9-1.9-1.2c-1,0.4-2,0.9-3,1.4c-2.2,1.2-4.4,2.6-6.4,4.2C41.4,14.5,40.6,15.2,39.8,16z"/>
					<path class="st1" d="M102.9,37.9c-0.3-2.1-0.8-4.2-1.5-6.2c-0.6-2-1.5-4-2.4-6c-1-1.9-2.1-3.8-3.4-5.6
						c-1.3-1.8-2.8-3.5-4.3-5.1c-1.6-1.6-3.3-3-5.1-4.3c-1.8-1.3-3.6-2.4-5.6-3.4c-1.8-0.8-4.1-1.8-5.9-2.4c-2-0.6-4.1-1.1-6.2-1.4
						c-2.1-0.3-4.2-0.5-6.3-0.5H62c-1.7,0-3.4,0.1-5.1,0.3c0.5,0.3,0.9,0.6,1.4,0.9C59.6,4,60.8,3.9,62,3.9h0.2c2,0,4.1,0.2,6.1,0.5
						c1.5,0.2,3,0.6,4.5,1c-3.1-0.5-6.3-0.6-9.4-0.3c-1,0.1-1.9,0.3-2.9,0.4c0.8,0.5,1.5,1.1,2.3,1.7c0.3,0,0.5-0.1,0.8-0.1
						c3.8-0.4,7.7-0.2,11.5,0.5c1,1.1,2.1,2.3,3.1,3.4c-3,0.2-6,1-8.8,2c0.5,0.5,1.1,1,1.6,1.6c2.8-1,5.7-1.8,8.6-2.1c0,0,0,0,0.1,0
						c2.3,2.3,4.6,4.4,7.1,6.5c-0.8,0.8-1.7,1.5-2.5,2.3c0.3,0.3,0.5,0.6,0.7,0.9c0,0,0,0,0,0c0.8-0.9,1.6-1.7,2.4-2.6
						c1.9,2.3,4,4.5,6.1,6.7c0,0.1,0,0.3,0,0.4c-0.6,3.9-2,7.7-3.7,11.4c-0.3,0.7-0.6,1.3-1,2c0.7,1.4,1.3,2.7,1.8,4.1
						c2.2,2.1,4.4,4.2,6.6,6.3c-0.6,2.1-1.4,4.1-2.3,6.1c-0.1,0.1-0.2,0.3-0.2,0.4c0.2,0.8,0.3,1.6,0.4,2.3c0.4-0.7,0.8-1.3,1.2-2
						c1-1.7,1.7-3.5,2.4-5.4c0.8,0.8,1.7,1.6,2.5,2.3c-0.2,0.8-0.4,1.5-0.6,2.3c-0.6,2-1.4,4-2.4,5.8c-0.4,0.8-0.9,1.6-1.3,2.4
						c-0.1,0.2-0.2,0.4-0.4,0.6c-0.4,0.6-0.7,1.1-1.1,1.7c0,0-0.1,0.1-0.1,0.1c-0.1,0.5-0.1,1-0.2,1.4l-0.1,0.3
						c0,0.2-0.1,0.4-0.2,0.7c0.3-0.4,0.6-0.7,0.9-1.1c1.3-1.8,2.4-3.6,3.4-5.6c1-1.9,1.8-3.9,2.4-6c0.6-2,1.1-4.1,1.5-6.2
						c0.3-2.1,0.5-4.2,0.5-6.3C103.4,42.1,103.2,39.9,102.9,37.9z M100.5,32c0.1,0.3,0.2,0.6,0.2,0.9c-0.1-0.1-0.1-0.1-0.2-0.2
						c-0.1-0.4-0.2-0.8-0.3-1.2C100.3,31.6,100.4,31.8,100.5,32z M94,19.6c1.7,2.7,3,5.6,3.8,8.6c0.1,0.5,0.2,1.1,0.3,1.6
						c-1-1.1-2.1-2.2-3.2-3.3c0.1-2,0-4-0.6-5.9C94.2,20.2,94,19.9,94,19.6C93.9,19.5,93.9,19.6,94,19.6z M90.6,15.7
						C90.6,15.7,90.6,15.7,90.6,15.7C90.6,15.7,90.6,15.8,90.6,15.7C90.6,15.8,90.6,15.7,90.6,15.7z M79.3,10.9
						C79.3,10.9,79.3,10.9,79.3,10.9c-1-1-2.1-2-3.1-3c0.6,0.1,1.2,0.2,1.8,0.4c2.9,0.8,5.7,2.1,8.3,3.7c-0.2-0.1-0.4-0.2-0.5-0.2
						C83.7,11.1,81.5,10.8,79.3,10.9z M86.7,18.9c-1.8-2.3-3.8-4.4-5.9-6.5c2.6-0.1,5.3,0.2,7.7,1.4c0.7,0.6,1.4,1.2,2,1.9
						c-0.1,0.1-0.4,0.3-0.8,0.6C88.7,17.1,87.7,18,86.7,18.9z M87.4,19.5c1.1-1.2,2.2-2.5,3.3-3.8c0.6,0.6,1.2,1.3,1.8,1.9
						c1,2.3,1.3,4.9,1.1,7.4C91.5,23.1,89.5,21.3,87.4,19.5z M97.3,49.8c-2.4-2.6-4.9-5.2-7.4-7.7c0.6-1,1.1-2.1,1.6-3.2
						c1.6-3.5,2.9-7.3,3.3-11.2c1.2,1.1,2.4,2.3,3.6,3.4c0.7,3.8,0.8,7.7,0.4,11.5C98.5,45,98,47.5,97.3,49.8z M101.9,50.4
						c-0.2,1.3-0.5,2.5-0.8,3.7c-0.8-0.9-1.6-1.8-2.4-2.6c1-2.8,1.7-5.7,2.1-8.6c0.4-3.3,0.3-6.6-0.2-9.8c0.1,0.1,0.1,0.1,0.2,0.2
						c0.4,1.6,0.8,3.2,1.1,4.8c0.3,2,0.5,4.1,0.5,6.2C102.4,46.2,102.2,48.3,101.9,50.4z"/>
					<path class="st1" d="M30.4,61.5c0.4-4,1.7-7.9,3.3-11.6c0.4-1,0.9-1.9,1.3-2.9c1.2,1.1,2.3,2.3,3.5,3.4l0.2-1.1
						c-1-1.1-2.1-2.2-3.1-3.2c0,0,0,0-0.1-0.1c1.6-3.1,3.5-6,5.5-8.9l0.2-1c-0.2-0.3-0.3-0.6-0.4-0.8c-2.5,2.9-4.8,5.9-6.7,9.3
						c-2.4-2.4-4.9-4.8-7.4-7.1c0.6-2.1,1.3-4.1,2.2-6c1-2.2,2.2-4.4,3.6-6.5c0.7-1.2,1.6-2.3,2.4-3.4c0-0.2-0.1-0.3-0.2-0.5
						c-2.9,2.8-5.3,6.1-7.3,9.7c-0.9,1.7-1.7,3.5-2.3,5.3c-0.6-0.6-1.2-1.1-1.8-1.7c1.6-6.9,5-13.3,9.9-18.4l0.1,0.1l0.3,0.3
						c-0.1-0.5-0.2-1-0.3-1.5c0-0.2,0-0.3-0.1-0.5c-0.1,0.1-0.3,0.3-0.4,0.4c0,0,0,0-0.1,0.1c-7.8,7.5-12.4,18.3-12.5,29.2
						c0,5.5,1,10.9,3.1,16c0.3,0.6,0.5,1.3,0.8,1.9l0.5,1l0.5,0.9c0.7,1.2,1.4,2.3,2.1,3.5c1.5,2.4,3.2,4.4,5.2,6.4
						c0.5,0.4,1,0.9,1.5,1.4l0.4-2.4c0,0,0,0,0,0l0,0l0.5-2.5l-0.5,0.5l-0.9,1l-0.1,0.1c-0.8-0.9-1.6-1.8-2.4-2.7
						c-0.7-2-0.9-4.1-0.8-6.2c1.6,1.6,3.3,3.2,5.1,4.7l0.1-0.5C33.9,65.2,32.2,63.4,30.4,61.5C30.4,61.6,30.4,61.6,30.4,61.5z
						 M23,45.4c-0.2,1.9-0.2,3.8-0.1,5.7c-0.4-2.3-0.7-4.6-0.7-6.9c0-3.3,0.4-6.5,1.1-9.6c0.6,0.6,1.2,1.3,1.7,1.9
						C24,39.4,23.3,42.3,23,45.4z M29,66.3c-0.4-0.7-0.8-1.4-1.3-2.1c-0.6-1.4-1.1-2.7-1.5-4.1c-0.2-0.6-0.3-1.2-0.4-1.7
						c1,1.1,2,2.1,3,3.1c-0.1,1.8,0.1,3.7,0.6,5.4C29.3,66.7,29.2,66.5,29,66.3z M28.9,60.2c-1.1-1.1-2.2-2.1-3.4-3.1
						c-0.7-3.8-0.9-7.6-0.5-11.5c0.2-2.5,0.8-5.1,1.5-7.5c2.3,2.5,4.7,5,7.1,7.4c-0.6,1.2-1.2,2.3-1.8,3.5
						C30.3,52.6,29.2,56.3,28.9,60.2z"/>
					<path class="st1" d="M42.3,25.1l0.8,0.8l0.2-1.2l-1.8-1.8C41.8,23.6,42,24.4,42.3,25.1z"/>
				</g>
				<g>
					<g>
						<path class="st2" d="M98.8,72.9c6.3-8.2,9.7-18.5,9.6-28.8c0.1-10.3-3.3-20.6-9.6-28.8c-0.1-0.1,0-0.2,0-0.2
							c0.1,0,0.1,0,0.2,0l0,0c4,3.5,7.2,8,9.3,13c2.1,5,3.2,10.5,3.2,15.9c0,2.7-0.3,5.5-0.8,8.1c-0.6,2.7-1.3,5.3-2.4,7.8
							c-2.1,5-5.3,9.5-9.3,13l0,0c-0.1,0.1-0.2,0-0.2,0C98.7,73.1,98.7,73,98.8,72.9z"/>
					</g>
					<g>
						<path class="st2" d="M25,73.1c-4-3.5-7.2-8-9.3-13c-1.1-2.5-1.8-5.1-2.4-7.8c-0.5-2.7-0.8-5.4-0.8-8.2
							c0-5.5,1.1-10.9,3.2-15.9c2.1-5,5.3-9.5,9.3-13l0,0c0.1-0.1,0.2,0,0.2,0c0,0.1,0.1,0.1,0,0.2c-6.3,8.2-9.7,18.5-9.6,28.8
							c-0.1,10.3,3.3,20.6,9.6,28.8c0.1,0.1,0,0.2,0,0.2C25.1,73.2,25,73.2,25,73.1L25,73.1z"/>
					</g>
				</g>
				<path class="st0" d="M82.9,72.7c-1.6-0.9-3.1-2-4.6-3.2c-2.8-2.4-5.3-5.3-7.5-8.3c-1.2-1.6-2.3-3.2-3.4-4.9
					c4-0.8,6.9-2.2,9.9-4.4c4.2-3.1,7.8-9.3,8.9-15.2c1.1-5.9-0.1-11.6-4-15.3c-2.6-2.6-6.3-4.2-17-4.2H46.3L35.6,75.1h14.1
					l2.8-15.2c1.3,1.2,16.7,15.8,24.2,15.8h9.1c0,0,2.2-1.2,2.5-1.4C86.4,74.3,84.6,73.6,82.9,72.7z M55.5,43.7l2.5-13.3h10.3
					c3.8,0,6,1.4,6,4.5c0,4.1-2.7,8.8-9,8.8H55.5z"/>
				<path class="st2" d="M93.7,62c-0.4-4.2-1.4-8.2-2.7-12.2c-1.4-4-3.1-8-5.1-11.8c-0.4,1.5-0.8,2.9-1.4,4.3
					c1.6,2.7,3.1,5.4,4.4,8.3c1.6,3.6,3,7.4,3.8,11.3c0.4,2.9,0.8,9.8-3.7,11.9c-0.3,0.1-0.6,0.2-0.9,0.3h0
					c-0.2,0.1-0.4,0.1-0.6,0.2c0,0-0.1,0-0.1,0c-1,0.2-2,0.2-3,0c-2-0.3-3.9-1-5.8-1.9c-3.7-1.8-6.9-4.3-10-6.9
					c-6.1-5.4-11.4-11.7-16-18.4c-3.4-4.8-6.4-9.9-9-15.2v0c-1-2-1.9-4-2.7-6.1c-1.4-3.8-2.6-7.6-3-11.5c-0.2-1.9-0.2-3.9,0.1-5.7
					c0.3-1.8,1.1-3.3,2.3-4.2c1.2-0.9,2.9-1,4.7-0.8c1.8,0.3,3.6,1,5.3,1.8c3.5,1.7,6.7,4.1,9.7,6.7c1.8,1.6,3.6,3.2,5.3,5
					c2.4,0,4.4,0.1,6.2,0.2c-2.7-3-5.7-5.8-8.8-8.4c-3.3-2.6-6.8-5.1-10.7-6.9c-2-0.9-4.1-1.6-6.4-1.9c-2.3-0.3-5,0-7.1,1.6
					c-2.1,1.6-3.1,4.1-3.5,6.3c-0.4,2.3-0.3,4.5,0,6.6c0.6,4.3,1.9,8.3,3.5,12.1c1.3,3.1,2.8,6.1,4.4,9c2.4,4.3,5.1,8.5,8,12.5
					c5,6.6,10.6,12.7,17.1,17.8c0.5,0.4,1.1,0.9,1.7,1.3l-0.3-0.2c7.4,5.4,11.4,7.3,13.8,7.9c0,0,0,0,0,0c0.2,0.1,0.4,0.1,0.6,0.1
					c0,0,0.1,0,0.1,0c0.2,0,0.3,0.1,0.4,0.1c0,0,0.1,0,0.1,0c0.1,0,0.3,0,0.4,0c0,0,0.1,0,0.1,0c0.1,0,0.2,0,0.3,0c0,0,0.1,0,0.1,0
					c0.3,0,0.6,0,0.9,0c5.4,0,6.7-4.7,7.2-7.2c0-0.1,0-0.2,0.1-0.2C93.9,66.1,93.9,64,93.7,62z"/>
			</g>
		</g>
		<g>
			<path class="st0" d="M15.7,111.6c-0.3,0.4-0.7,1.1-1,1.6c-0.1,0.1-0.2,0.3-0.2,0.4l-0.1,0.1c-0.4,0-0.5,0-0.9,0l-0.1-0.1l0-1.6
				v-3.9c-0.3,0.5-0.8,1.3-1.1,1.9l-1.1,1.7c-0.1,0.2-0.3,0.5-0.4,0.7c-0.5,0.8-0.5,0.8-0.7,1.2l-0.1,0l-1,0l-0.1,0v-1.5l-0.1-2.9
				l0-1.4l0.1-0.1l0.7,0l0.1,0v1.7l0,2.2v1.6l2.6-4.3l0.7-1.2l0.1,0c0.5,0,0.6,0,1.1,0l0.1,0.1v1.5v2.3v1.6l2.3-3.8
				c0.4-0.7,0.5-0.9,1-1.6l0.1,0l0.7,0l0.1,0l-0.9,1.5L15.7,111.6z"/>
			<path class="st0" d="M29.1,112.8c-1,0.8-2.1,1-2.9,1c-1.6,0-3.1-0.7-3.1-2.3c0-1.4,1.2-3.9,4.3-3.9c1.8,0,3.1,0.8,3.1,2.3
				c0,0.4-0.1,0.8-0.2,1.2C30.1,111.7,29.7,112.3,29.1,112.8z M29.8,109.9c0-1.2-1-1.9-2.4-1.9c-2.4,0-3.5,2.2-3.5,3.4
				c0,0.4,0.1,0.9,0.6,1.3c0.4,0.4,1.1,0.5,1.8,0.5c1.9,0,3-1.2,3.4-2.6C29.7,110.5,29.8,110.2,29.8,109.9z"/>
			<path class="st0" d="M39.9,107.7c0.5,0,1.3,0,1.8,0.1c1,0.3,1,1,1,1.2c0,0.4-0.2,0.8-0.7,1.2c-0.6,0.5-1.4,0.6-2.1,0.6l1.3,1.7
				c0.1,0.1,0.6,0.8,0.7,1l-0.1,0.1l-0.8,0l-0.1,0c-0.2-0.4-0.3-0.5-0.6-1l-1.2-1.7l-1.1,0c-0.3,1-0.4,1.3-0.8,2.6l-0.1,0.1h-0.7
				l-0.1-0.1l0.6-1.9l0.3-1.2c0.4-1.4,0.5-1.6,0.8-2.7l0.1-0.1L39.9,107.7z M38.2,110.5l0.3,0c1,0,2,0,2.8-0.4
				c0.5-0.2,0.8-0.7,0.8-1.1c0-0.8-0.9-0.9-2-0.9c-0.2,0-0.4,0-0.7,0l-0.5,0l-0.3,0.8L38.2,110.5z"/>
			<path class="st0" d="M52.8,113.6L52.8,113.6l-1.4,0h-1.5l-1.2,0l-0.1,0l0.6-1.8l0.5-1.7l0.7-2.3l0.1,0l0.7,0l0.1,0.1l-0.7,2.2
				l-0.5,1.7c-0.1,0.4-0.4,1.1-0.4,1.6c1.1,0,1.5,0,3.3,0l0.1,0.1L52.8,113.6z"/>
			<path class="st0" d="M59.4,113.6l0.4-1.2l0.5-1.7c0.4-1.4,0.5-1.8,0.8-2.9l0.1,0l0.7,0h0.7c0.3,0,0.5,0,0.8,0
				c0.8,0,1.7,0,2.4,0.5c0.6,0.4,1,1,1,1.8c0,1-0.6,2.2-1.6,2.9c-1.2,0.9-2.7,0.9-4.2,0.9L59.4,113.6L59.4,113.6z M61.2,110.1
				c-0.5,1.5-0.6,1.9-0.9,3.1l0.6,0c0.8,0,1.8,0,2.5-0.2c1.7-0.5,2.5-1.9,2.5-3.1c0-0.6-0.3-1.1-1-1.4c-0.6-0.3-1.3-0.3-2.5-0.3
				l-0.7,0L61.2,110.1z"/>
			<path class="st0" d="M80.4,111.6c-0.3,0.4-0.7,1.1-1,1.6c-0.1,0.1-0.2,0.3-0.2,0.4l-0.1,0.1c-0.4,0-0.5,0-0.9,0l-0.1-0.1l0-1.6
				v-3.9c-0.3,0.5-0.8,1.3-1.1,1.9l-1.1,1.7c-0.1,0.2-0.3,0.5-0.4,0.7c-0.5,0.8-0.5,0.8-0.7,1.2l-0.1,0l-1,0l-0.1,0v-1.5l-0.1-2.9
				l0-1.4l0.1-0.1l0.7,0l0.1,0v1.7l0,2.2v1.6l2.6-4.3l0.7-1.2l0.1,0c0.5,0,0.6,0,1.1,0l0.1,0.1v1.5v2.3v1.6l2.3-3.8
				c0.4-0.7,0.5-0.9,1-1.6l0.1,0l0.7,0l0.1,0l-0.9,1.5L80.4,111.6z"/>
			<path class="st0" d="M88.3,113.6L88.3,113.6l-0.8,0.1l-0.1,0l0.4-1.1l0.5-1.8c0.4-1.4,0.5-1.7,0.8-3l0.1,0l0.7,0l0,0l-1,3.2
				l-0.2,0.7L88.3,113.6z"/>
			<path class="st0" d="M95.9,113.6l0.4-1.2l0.5-1.7c0.4-1.4,0.5-1.8,0.8-2.9l0.1,0l0.7,0H99c0.3,0,0.5,0,0.8,0c0.8,0,1.7,0,2.4,0.5
				c0.6,0.4,1,1,1,1.8c0,1-0.6,2.2-1.6,2.9c-1.2,0.9-2.7,0.9-4.2,0.9L95.9,113.6L95.9,113.6z M97.7,110.1c-0.5,1.5-0.6,1.9-0.9,3.1
				l0.6,0c0.8,0,1.8,0,2.5-0.2c1.7-0.5,2.5-1.9,2.5-3.1c0-0.6-0.3-1.1-1-1.4c-0.6-0.3-1.3-0.3-2.5-0.3l-0.7,0L97.7,110.1z"/>
			<path class="st0" d="M113.7,113.6L113.7,113.6l-0.8,0h-1.4l-2.2,0l-0.1-0.1l0.5-1.7l0.4-1.3l0.8-2.9l0.1,0h1.4l1.3,0l1.6,0l0.1,0
				l-0.2,0.4l-0.1,0.1l-3.5,0l-0.7,2.2h1.9l1.6,0l0,0.1l-0.1,0.4l-0.1,0.1l-1.4,0l-2,0l-0.3,0.9l-0.4,1.5h1.5l2.2,0l0.1,0.1
				L113.7,113.6z"/>
		</g>
	</g>
	<g>
		<path class="st0" d="M105.6,73.4c0.1,0.1,0.3,0.1,0.4,0.2c0.1,0.1,0.2,0.2,0.2,0.4c0.1,0.1,0.1,0.3,0.1,0.5c0,0.2,0,0.3-0.1,0.5
			c-0.1,0.1-0.1,0.3-0.2,0.4c-0.1,0.1-0.2,0.2-0.4,0.2c-0.1,0.1-0.3,0.1-0.5,0.1c-0.2,0-0.3,0-0.5-0.1c-0.1-0.1-0.3-0.1-0.4-0.2
			c-0.1-0.1-0.2-0.2-0.2-0.4c-0.1-0.1-0.1-0.3-0.1-0.5c0-0.2,0-0.3,0.1-0.5c0.1-0.1,0.1-0.3,0.2-0.4c0.1-0.1,0.2-0.2,0.4-0.2
			c0.1-0.1,0.3-0.1,0.5-0.1C105.3,73.3,105.5,73.3,105.6,73.4z M104.8,73.6c-0.1,0.1-0.2,0.1-0.3,0.2c-0.1,0.1-0.2,0.2-0.2,0.3
			c0,0.1-0.1,0.3-0.1,0.4c0,0.1,0,0.3,0.1,0.4c0,0.1,0.1,0.2,0.2,0.3c0.1,0.1,0.2,0.2,0.3,0.2c0.1,0.1,0.3,0.1,0.4,0.1
			c0.1,0,0.3,0,0.4-0.1c0.1-0.1,0.2-0.1,0.3-0.2c0.1-0.1,0.2-0.2,0.2-0.3c0-0.1,0.1-0.3,0.1-0.4c0-0.1,0-0.3-0.1-0.4
			c0-0.1-0.1-0.2-0.2-0.3c-0.1-0.1-0.2-0.2-0.3-0.2c-0.1-0.1-0.2-0.1-0.4-0.1C105,73.5,104.9,73.5,104.8,73.6z M104.8,75.1v-1.3h0.5
			c0.2,0,0.3,0,0.3,0.1c0.1,0.1,0.1,0.2,0.1,0.3c0,0.1,0,0.1,0,0.2c0,0,0,0.1-0.1,0.1c0,0-0.1,0.1-0.1,0.1c0,0-0.1,0-0.1,0l0.4,0.6
			h-0.2l-0.4-0.6h-0.3v0.6H104.8z M105.3,74.4c0,0,0.1,0,0.1,0c0,0,0.1,0,0.1-0.1c0,0,0-0.1,0-0.1c0,0,0-0.1,0-0.1
			c0,0,0-0.1-0.1-0.1c0,0-0.1,0-0.1,0c0,0-0.1,0-0.1,0h-0.3v0.5h0.2C105.2,74.4,105.2,74.4,105.3,74.4z"/>
	</g>
</g>
</svg>
