<svg id="Layer_1" data-name="Layer 1" xmlns="http://www.w3.org/2000/svg" viewBox="0 0 230 238"><defs><style>.cls-1{fill:#fff;}</style></defs><title>yukon_logo_white</title><path class="cls-1" d="M113.49,69.79h.78a1.3,1.3,0,0,0,1-.4l.25-.18-2-3.2-.78,3a1.51,1.51,0,0,0,0,.29C112.71,69.61,113,69.79,113.49,69.79Z"/><polygon class="cls-1" points="140.11 66.95 145.78 66.95 144.45 60.34 140.11 66.95"/><path class="cls-1" d="M203.39,97.22c-.43-2.72-6-16.19-.69-27.63,3.66-7.85,13.63-17.67,20.4-22L186.23.5c-28.67,15.74-53.35,13.43-71.09-.5C97.39,13.94,72.45,16.25,43.77.5L6.9,47.61c6.77,4.31,16.74,14.13,20.4,22C32.63,81,27,94.5,26.61,97.22c-.55,4-9,18.76-10.48,26.51-5.68,30.49,5.14,62.36,23.12,77.34,1.58,1.31,8.19,7,11.82,9.07,8.51,6.27,40.08,16.69,47.13,19.62a131,131,0,0,1,16.7,8.25,133.41,133.41,0,0,1,16.89-8.25c7.05-2.93,38.61-13.35,47.13-19.62,3.64-2.08,10.24-7.75,11.82-9.07,18-15,28.8-46.85,23.12-77.34C212.43,116,203.93,101.23,203.39,97.22ZM168.1,32.86a11.11,11.11,0,0,0,.33-2.52,3.82,3.82,0,0,0-.33-1.66h12l-.57,2.14c1-1.85,1.52-2.14,3.9-2.14h7.7a6.15,6.15,0,0,1,5,2,6.74,6.74,0,0,1,1.48,4,16.5,16.5,0,0,1-.57,3.71l-2.43,9.41a13.82,13.82,0,0,0-.28,2.52,4.41,4.41,0,0,0,.28,1.66h-13.4a13.67,13.67,0,0,0,2.33-5.42l2.66-10.32a7.54,7.54,0,0,0,.38-1.85,1.25,1.25,0,0,0-1.09-1.14,5,5,0,0,0-1.14,0h-2.71c-1.85,0-2.37.38-2.85,2.24l-3.18,12.36a13.62,13.62,0,0,0-.29,2.52,4.35,4.35,0,0,0,.29,1.66h-13.4a13.73,13.73,0,0,0,2.33-5.42Zm16.81,38.35a3.5,3.5,0,0,0,1.05.07h5.66a6,6,0,0,0,2.08-.24l-1,2.52H182.44a3.7,3.7,0,0,1-2.71-.84,2.9,2.9,0,0,1-1-2.11,4.62,4.62,0,0,1,.12-1l1.34-5.18c.48-1.8,1.68-2.66,3.74-2.66h7.36c1.75,0,2.52.19,3.16.82a2.77,2.77,0,0,1,.91,2.11,4.14,4.14,0,0,1-.17,1.17l-.74,2.93h-9.66l-.29,1.08a4,4,0,0,0-.09.65A.7.7,0,0,0,184.91,71.21Zm-8.49,2.35h-6.76a6.89,6.89,0,0,0,1.18-2.73l2.88-11.16a7.26,7.26,0,0,0,.14-1.27,2.36,2.36,0,0,0-.14-.84H180l-3.59,13.89a6.66,6.66,0,0,0-.14,1.27A2.18,2.18,0,0,0,176.42,73.56Zm-8.48-2.09a11.73,11.73,0,0,0,1.56,2.09h-7.29c0-.58,0-.65-.57-1.65l-.86-1.56-2.9,2.23c-.6.48-.77.65-.91,1H146.23a2.45,2.45,0,0,0,.38-1.22,8.25,8.25,0,0,0-.19-1.44l-.34-1.65h-7.5l-1.8,2.66a2.29,2.29,0,0,0-.53,1.25,1.42,1.42,0,0,0,0,.41H132a10.66,10.66,0,0,0,2-2.26l8.63-12.83a2.39,2.39,0,0,0-1.32-.91h8.48l2.78,13.39a5.91,5.91,0,0,0,.79,2.2l6.25-4.6-3.09-5.28c-.6-1-.67-1.1-1.13-1.46h7.34a3.7,3.7,0,0,0,.6,1.92l.83,1.44,3-2.11c.79-.65,1.08-1,1.18-1.25h4.17l-7.12,5.33Zm-32.05-42c1.38-.62,2.95-.81,6.13-.81h14.11c3,0,4.51.57,5.8,2.24a6.51,6.51,0,0,1,1.24,3.85,9,9,0,0,1-.43,2.61l-2.19,8.56c-.66,2.52-1.23,3.52-2.71,4.66S154.89,52,151.23,52H137.17c-3.66,0-4.37-.14-5.66-1.24a5.79,5.79,0,0,1-2.09-4.56,8.12,8.12,0,0,1,.29-2l2.66-10.22A6.56,6.56,0,0,1,135.89,29.48Zm-30.78-5a13,13,0,0,0,.28-2.52,4.53,4.53,0,0,0-.28-1.66h12.5l-4.28,16.59,7.17-5.18c1.71-1.33,2.23-1.9,2.66-3h9.36a30.52,30.52,0,0,0-4.32,2.85l-5.65,4.14,4.13,11.84A11.61,11.61,0,0,0,129.1,52H116.75l-3.42-9.65-1.71,1.09-1.14,4.38a14.11,14.11,0,0,0-.29,2.52,4.43,4.43,0,0,0,.29,1.66H97.08a14.08,14.08,0,0,0,2.33-5.42Zm5.38,37.27A3.07,3.07,0,0,1,110,60.2,2.61,2.61,0,0,1,111.36,58a4.58,4.58,0,0,1,2-.45h11l-.19,3.17a3.82,3.82,0,0,0-2.42-.53h-4c-.57,0-.89.24-.89.65a1.29,1.29,0,0,0,.21.65l3,5.13,1.8-1.51c.74-.65.81-.77,1-1.27l.15-.58h2.61l-.44,1.64a3,3,0,0,1-.35,1c-.12.19-.2.26-.8.74l-2.61,2.16.67,1.2c.46.81.84,1,2.26,1a3.82,3.82,0,0,0,2-.48L125,73.56h-6.11c-1.17,0-1.58-.22-2.09-1.13-1,.72-1,.77-1.29.86a4.65,4.65,0,0,1-1.54.26H110.8a4.61,4.61,0,0,1-2.95-.74,3.25,3.25,0,0,1-1.25-2.52,5,5,0,0,1,.12-1l.79-3a3.41,3.41,0,0,1,1.34-1.94,4.28,4.28,0,0,1,2.28-.51c.14,0,.36,0,.64,0ZM93.91,73.56H87.15a7.12,7.12,0,0,0,1.17-2.73l1.77-6.91a5.66,5.66,0,0,0,.17-1.27,2,2,0,0,0-.17-.84h5.4l-.05.55,0,.81-.07.62a3.06,3.06,0,0,1,3.28-2h3.26l-1,3.84a2.9,2.9,0,0,0-2-.6h-2c-1,0-1.39.24-1.61,1l-1.39,5.4a6.65,6.65,0,0,0-.15,1.27A2.22,2.22,0,0,0,93.91,73.56Zm-8.18,0H80.06a2,2,0,0,1-.15-.81v-.34a2.24,2.24,0,0,1-2.27,1.15H74.23a3.65,3.65,0,0,1-2.54-.77,2.66,2.66,0,0,1-1-2.09,3.83,3.83,0,0,1,.17-1.11l.29-1.13a3.42,3.42,0,0,1,1.44-2.33,4,4,0,0,1,2.4-.46h5.49c.6,0,.62,0,.81-.14a1.26,1.26,0,0,0,.31-.84c0-.48-.31-.62-1.24-.62H74.64a5.13,5.13,0,0,0-2.49.46l1.27-2.74H84.16a2.74,2.74,0,0,1,2.13.7,3.32,3.32,0,0,1,1,2.26,7.41,7.41,0,0,1-.24,1.6l-1.32,5.09a5.66,5.66,0,0,0-.16,1.27A2,2,0,0,0,85.74,73.56ZM77.66,47.45h3.14c1.57,0,2.14-.43,2.52-2l3.27-12.65a13.26,13.26,0,0,0,.29-2.52,4.6,4.6,0,0,0-.29-1.66h12.5L94.14,47.79a11.87,11.87,0,0,0-.33,2.52A3.76,3.76,0,0,0,94.14,52H83.65l-.15-1.85C82.79,51.49,81.94,52,80.13,52H71.48a7.33,7.33,0,0,1-4.61-1.14,5.86,5.86,0,0,1-2.38-4.42,17.64,17.64,0,0,1,.33-2.28l3-11.27a13.81,13.81,0,0,0,.28-2.52,3.82,3.82,0,0,0-.33-1.66H80.22L75.95,45.26a2.54,2.54,0,0,0-.14.86C75.81,47,76.38,47.45,77.66,47.45ZM60,71.21a3.5,3.5,0,0,0,1.05.07h5.66A6,6,0,0,0,68.77,71l-1,2.52H57.5a3.69,3.69,0,0,1-2.7-.84,2.91,2.91,0,0,1-1-2.11,4.74,4.74,0,0,1,.12-1l1.35-5.18C55.75,62.67,57,61.8,59,61.8h7.36c1.75,0,2.52.19,3.16.82a2.77,2.77,0,0,1,.91,2.11,4.13,4.13,0,0,1-.17,1.17l-.74,2.93H59.88l-.29,1.08a4.29,4.29,0,0,0-.09.65A.7.7,0,0,0,60,71.21Zm-9.25-51a3.68,3.68,0,0,0-.52,2,10.06,10.06,0,0,0,.62,3.23l2.89,8.7,8.41-10a8,8,0,0,0,2-3.95h8.41a29.33,29.33,0,0,0-5,5.37L55.33,40.27l-1.95,7.51a13.62,13.62,0,0,0-.28,2.52A4.53,4.53,0,0,0,53.38,52H39.18a13.7,13.7,0,0,0,2.33-5.42l1.66-6.42-4.85-15a15.85,15.85,0,0,0-2.81-4.85ZM35.57,69l2-8a3.89,3.89,0,0,1,2.11-2.9c1.22-.55,1.27-.55,4.61-.58H54.78l-.27,3a7,7,0,0,0-2.75-.41H45.62c-1.32,0-1.68.24-1.95,1.27l-2.08,8.06a1.5,1.5,0,0,0-.12.6c0,.53.36.79,1.1.79h2c.94,0,1.13-.19,1.49-1.54l.67-2.62H45.23a4.92,4.92,0,0,0-1.92.29l.76-2.93h10a7,7,0,0,0-1.15,2.74l-1.2,4.58a6.7,6.7,0,0,0-.15,1.27,2.15,2.15,0,0,0,.15.84H46.65l0-1.49a1.9,1.9,0,0,1-2.21,1.49h-5c-1.68,0-2.4-.14-3-.62a3,3,0,0,1-1.15-2.3A6,6,0,0,1,35.57,69ZM84.26,193.07c-2.35-3.44-7.61-2.14-7.11-3.33a3.53,3.53,0,0,0-1.68-3.84c-1.19-.5-4.86,2-4.86,2a5,5,0,0,1,.64-2.49c.72-1.33.16-4.32-.24-5s-2.07-3-3.5-3.36-5.44.51-5.44.51a24,24,0,0,0,4.78-3.14c1.74-1.64,2.67-8.23,2.67-8.23s1.1,2.37,2.37,5.54.29,4.06,2.05,7.54,6.37,7.7,8,9.44,10.18,10.57,10.18,10.57S86.6,196.51,84.26,193.07ZM68.2,134.66s-1.61-7.11-2.86-6.34-.87,2.94-2.22,2.19-1.54-3.77-2.93-4-4,.34-3,2.24,2.62,3.86,3.48,5.32a19.52,19.52,0,0,1,2,4.88c.51,1.86,2,2.3,1.15,4.7a9.49,9.49,0,0,0-.63,3.23l-1.33,3.15a6.82,6.82,0,0,1-.4-2.52,14.44,14.44,0,0,0-1-4.34,9.77,9.77,0,0,0-2.36-3.47c-.9-1.05-2.84,1.16-2.84,1.16l0-1.44S56.71,137,56.47,136s-3.1.15-3.1.15l.43-1.28a25.92,25.92,0,0,1,.53-2.59c.26-.9-.15-1.52-1.22-3s0-2.23.74-3.62,1-1.83,3.43-2.82,6,2,7.48,2.48,3.94,4.24,4.9,6.22a4.32,4.32,0,0,1-.16,3.85,7.49,7.49,0,0,1-.23,2.15c-.32,1.55-2.3,2.51-3.07,3.31s-2.14,4-2.47,4.79l0,.08a22.23,22.23,0,0,1,2.22-5.24c1.33-1.83,2.4-1.75,2.39-3S68.2,134.66,68.2,134.66ZM116.43,105s1.87-1,3.34-1.65a3.18,3.18,0,0,1,3.38.18c.94.65,1.08,1.19,1.94,1.51a11.52,11.52,0,0,0,1.4.58c.68.18-.43.07-1.55-.07s-.93.75-3.13.75-2.91-.18-3.8-.65A3.9,3.9,0,0,0,116.43,105Zm30.63,76.16c-.19,1.94-1,2.71-.39,3.48s1.55,1.93,1.35,2.51a6.18,6.18,0,0,0-.05,1.22,16.15,16.15,0,0,1-1.91,1.16,8.26,8.26,0,0,1-3.86.29,3.25,3.25,0,0,0,.1,2.39,2.23,2.23,0,0,1,.32,1.44,1,1,0,0,1,0,.14c-.06-.1-.2-.19-.46-.19a3.72,3.72,0,0,0-1.21.1.75.75,0,0,0-.1.27,1.48,1.48,0,0,1,0,.17.43.43,0,0,0-.38-.37,6.92,6.92,0,0,1-.79-.07h-.2l0,0c.06-.21,0-.4-.47-.51s-.72-.25-.89-.12l-.06,0s0,0,0,0l0-.13a3.22,3.22,0,0,0-.61-.49,1.45,1.45,0,0,0-1.24,0l-.07.1a.58.58,0,0,0,0-.16.4.4,0,0,0-.06-.19,1.49,1.49,0,0,0-1.25-.86,6.66,6.66,0,0,0-1.31,0,1.28,1.28,0,0,0,.05-.19v0a3.74,3.74,0,0,0-.38-1.81,6.76,6.76,0,0,1-.29-2.39,16.74,16.74,0,0,0-.87-3.06c-.09-.48-.67-.77-1.44-.67s-.63,1-.77,2.2c-.4,3.26-1.95,4.11-1.95,4.11s.12.15.28.38h0l0,.07.33.46-.31-.44.31.44h0c.17.24.34.5.5.76h0l.21.36h0c.07.12.12.23.17.33.38.86,1.06,1.91,1.83,2a1.37,1.37,0,0,0,1.36-.82l.09-.13.14-.23c0,.12,0,.28.06.45h0c0,.06,0,.12,0,.18h0l0,.2h0c0,.06,0,.11.05.17a.26.26,0,0,0,0,.06l0,.12,0,.07a.64.64,0,0,0,0,.1l0,.06,0,.08,0,0,.06.07,0,0,.11.06a1.79,1.79,0,0,0,1.83-.48v0l.1-.16.19-.26a.46.46,0,0,0,0,.09,3,3,0,0,0,.16.76h0c0,.12.08.24.13.36.18.46.53,0,1.07-.11l.15,0h0l.09,0h0a.33.33,0,0,0,.12-.18v0a1.1,1.1,0,0,0,.07.27h0a.66.66,0,0,0,.35.59l.13,0h.05l.09,0h.34l.07,0,.06,0,.07,0,.05,0,.08-.07,0,0a.53.53,0,0,0,.09-.12l.23-.41-.12.26s0,.06,0,.14,0,.18.06.28v0l0,.2c.07.24.41.1.83,0l.13,0,0,0,.06,0,0,0,0,0h0l.05-.06v0l0-.05h0l0-.08a.64.64,0,0,1,.17,0l.19.08v0l.1.18c.24.41.45,0,.76,0l.13,0,0,0,.08-.05.06,0,.07-.06.06-.06L142,195h0c.12-.13.21-.25.21-.25l.22-.45c-.06.21-.12.42-.17.63a1,1,0,0,0,0,.17h0l0,.09,0,.13c0,.07,0,.13,0,.2v.12a1.92,1.92,0,0,0,0,.22s0,.07,0,.11a2.09,2.09,0,0,0,.07.33l0,0h0l.06,0h.73l.13,0h.06l.16,0h0l.18,0h0l.19,0h0a4,4,0,0,0,.7-.23h0l.13-.07h0l.07,0a27.81,27.81,0,0,0,3.08-2.77c1.35-1.34,2.89-4.39,3.28-4.87a2.25,2.25,0,0,0,.2-1.72.16.16,0,0,0-.06-.07h0a.56.56,0,0,1,.59.35,2.61,2.61,0,0,1-.25,2c-.1.13-.33.52-.59,1a21.67,21.67,0,0,1-2.72,4l-.43.42a4.51,4.51,0,0,1-.09.6c-.39,1.74-2.13,4.64-2.52,6.58s-2.12,6.38-4.83,6.58-5,.78-7.35-2.13-6.77-7.55-8.12-8.13-4.34-6.27-3.17-10.53.58-8.51,0-12.77,1.55-18,4.64-23.22c1.43-2.41,3.19-1.45,9-10.56,1.47-2.31,4-4.59,7.39-4.65l-.38.1a8.7,8.7,0,0,0-3.28,2s0,.6,0,1.45c0,2,.07,5.31.46,5.88.57.81,1.47,1.12,2,.51s1.36-3.26,1.93-5.39l.35-1.3,0-.08c.11.2.35.35.82.36a6.18,6.18,0,0,0,2.14-.19,1.45,1.45,0,0,0,.18-.51,2.49,2.49,0,0,1,.06-.31s0-.09,0-.14l0-.22.06-.21.06-.11-.06.24-.11.44a.8.8,0,0,0,.67.7,12.87,12.87,0,0,1,1.4.14h.29a1.22,1.22,0,0,0-.1.44c0,.4-.08.76.83,1,1.07.24,1.27.48,1.57.23l.1-.09,0,0c0,.15-.06.25-.06.25a5.48,5.48,0,0,0,1.06.93,2.44,2.44,0,0,0,2.2.08l.11-.2a1.4,1.4,0,0,0,0,.3.92.92,0,0,0,.11.36,2.65,2.65,0,0,0,2.21,1.63c.89,0,2,.32,2.43,0l.06-.06,0,0,0-.05a12.46,12.46,0,0,1,.78-1.57l-3.45-1.88a33.94,33.94,0,0,0-5.78-2.6c-.45-.17-.9-.31-1.34-.44-.09.19-.22.43-.34.69l-.21.44.14-.35c.08-.18.18-.37.28-.57l0,0-.16-.13-.3-.23c-.71-.18-1.39-.32-2-.42,0,0-.17,0-.16,0-.62-.09-1.17-.15-1.63-.19a12,12,0,0,1-1.22.25l-.16.2-.14.32.43-1.52,0,0,2.07.12c1.19.32,3.68,1.19,6.28,2.2a43.06,43.06,0,0,1,5,2.06,13.63,13.63,0,0,1,3.46,1.93c1.16,1.35,3.09,3.87,2.9,5.22s-.57,4.26-2.7,5.61-7,5.8-9.86,13S147.25,179.2,147.05,181.13Zm21.46-60.83c.6,1.75,1.45,5.85.49,8s-1.69,3.92-3.93,4.35a15,15,0,0,1-6.94-.18c-2.35-.66-3.32-1-3.62-.72a27.55,27.55,0,0,0-1.32,4.83c0,.36-.36.24-.36.24s1.45-4.65.54-5.61a6.2,6.2,0,0,0-4-1.75c-1.93-.24-6-3.08-6.76-5.61s-.36-7.18.79-7.85a21.53,21.53,0,0,0,3.5-2.11c1.15-1,1.93-3.8,5.55-3.44a22.88,22.88,0,0,1,6.34,1.68h0a6.51,6.51,0,0,0,1-.13c.62-.05.9-.47,1.68-.78a1.54,1.54,0,0,1,2,.71,23.62,23.62,0,0,1,1.36,2.23c-.36-.08-.47,0-1.16.15a2.54,2.54,0,0,1-.94.07C165.06,116,168,118.68,168.52,120.3Zm20,78.3-1,.84c-5.47-3.18-3.53-3.44-4.43-4.34s-4.22-2.26-6.78-3.92-6.33-5.43-6.48-6.64-3.17-6.94-7.38-9.8-2.26-3.47-2.72-5.73,2.26-6.79,2.11-7.84,1.51-3.92,2.71-2.87S168,159,168,159a20.63,20.63,0,0,1-2.41-4.52c-.6-2,.6-3.92.9-5.58s3.47-5.88,4.52-7.09c.55-.62-.94-4.33-.34-6.19s5.42,0,7.35-2.52a11.08,11.08,0,0,0,1.53-3.12,12.35,12.35,0,0,1-2.26,2.82c-1.84,1.77-4.37,1.92-5.32,1.08a1,1,0,0,0-1-.11l.19-.66a1.14,1.14,0,0,1,1,.24c1.23,1,2.24-.47,3.95-.92s2.37-3.86,3.22-4.68-.27-2.34.16-3.27,1.66-1.94,2.91-3.57c.62-.8.6-1.56.08-3.34s-3.66-2.07-5.14-2.47a26.47,26.47,0,0,0-5.23-.24s3-.2,4-.19a11.83,11.83,0,0,1,4.7.72,3.92,3.92,0,0,1,2.89,4c0,1.59-2.84,3.79-3.89,5-.84.94.19,1.93.47,3,.13-.66.23-1.33.3-2,.3-3,4.48-2.94,3.28-8.32-.77-3.48-12-2.9-12-2.9a8.22,8.22,0,0,1-3.29-3.68c-1.5-2.87-4.78-6.88-10.05-7.93a62.07,62.07,0,0,1-13.34-4.71c-3.77-1.66-6.7-4.73-18-5.49S104.66,96.3,98,99.17,87,106,86.12,108.82s-6,10.41-10.1,10.86a12.19,12.19,0,0,1-2.83-.06l.09-.3a1.89,1.89,0,0,1-.15.29c-3.33-.43-6.93-2-10.53-3.26a13.59,13.59,0,0,0-9,.15,5.28,5.28,0,0,0-4.93,4.25,4.23,4.23,0,0,0-.11.55,1.3,1.3,0,0,1,0-.15,5.85,5.85,0,0,1,6.07-4.2,17.66,17.66,0,0,1,7,1.32c1.47.51,5.54,2.26,5.54,2.26s-5.21-2.1-7.49-2.27-6.86-1.31-8.46.92-2,3.3-1.55,4.74c.72,2.22,1.6,3.92,2,5.28l.11.17a2.86,2.86,0,0,1-.24,2.72,3.68,3.68,0,0,1-.38.37c-.54.87-1.06,1.75-.62,2.63.8,1.57,0,6.71,2.21,8.19s2.88,4,5.11,3.26a1.91,1.91,0,0,1,.64-.1c0-.12-.06-.19.15,0,1.67.18,2.49,2.91,2.79,4,.1.38-1.62-3.26-3.28-3.19-.64.85-1.25,1.67-.73,1.67.87,0,2-.29,2.9.58s0,2.32,0,2.32a1.94,1.94,0,0,1,1-.72,5.22,5.22,0,0,0,.66,1.53c1.19,2.12,2.8,1.29,2.37-1,0-.07,0-.13,0-.19,1.7,1-.29,2.83-.83,4.7-.58,2-3.48,4.64-5.51,7.83s.58,3.48,0,5.8-2,1.74-4.35,5.81a34.5,34.5,0,0,1-7.83,8.71c-1.45,1.16-7.25,4.35-7.25,4.35s6.38-2,5.51.29-.89,6.63-4.62,7.81C23.28,181.62,13.82,152,19.1,123.58c1.4-7.52,9.64-21.82,10.16-25.71.2-1.24,1.5-5.24,2.29-10.28h166.9c.79,5,2.09,9,2.29,10.28.53,3.9,8.77,18.2,10.17,25.71C216.41,153.16,205.92,184.07,188.48,198.6Zm-15.14-73.34c.88-.74,2.33-1.64,3.43-2.63s-.46-1.93-1.39-2.11-1.65,1.5-2.59,1.85c0-.05,0-.11,0-.16V122c0-.22,0-.43,0-.63s0-.21,0-.32a.76.76,0,0,0,0-.1c0-.08,0-.16,0-.25s0-.08,0-.11,0-.17,0-.26a.6.6,0,0,0,0-.12,2.47,2.47,0,0,0,0-.27c-.05-.45-.12-.93-.2-1.42h0c1,0,4-1.06,5.28.11s1.4,1.51,1.53,2.54.66,1.77-.34,2.45-1.4,1-1.43,1.61-.25,1.75-.25,1.75l0,.91s-1.53-1.37-1.91-.79-.06,2.43-.06,2.43l-.3.92s-.73-1.83-1.54-1.37c-.35.2-.72.4-1.07.61a15.43,15.43,0,0,0,.28-1.88c0-.26,0-.53.06-.8v-.06c0-.52.05-1,.06-1.57,0,.14,0,.28,0,.41C172.95,125.61,173.14,125.43,173.34,125.27Z"/><path class="cls-1" d="M64.45,65a2.9,2.9,0,0,0,.08-.42c0-.29-.27-.44-.75-.44H62.22c-.78,0-1,.13-1.17.86l-.29,1h3.39Z"/><path class="cls-1" d="M77.15,68.71l-.26,1a1.16,1.16,0,0,0-.08.41c0,.45.22.59.94.59h1.18c.84,0,.92-.06,1.11-.71l.54-2.12H78.26C77.46,67.9,77.33,68,77.15,68.71Z"/><path class="cls-1" d="M189.15,65a3.36,3.36,0,0,0,.08-.42c0-.29-.27-.44-.75-.44h-1.56c-.77,0-1,.13-1.17.86l-.29,1h3.38Z"/><path class="cls-1" d="M143.28,47.11h3.42c2.12,0,2.56-.28,3-2l2.36-9a5.48,5.48,0,0,0,.34-1.65c0-1.09-.72-1.56-2.46-1.56H147c-2.22,0-2.8.38-3.23,2l-2.51,9.5a5.92,5.92,0,0,0-.24,1.37C141.05,46.73,141.73,47.11,143.28,47.11Z"/><path class="cls-1" d="M153.16,115.21a6.57,6.57,0,0,0-3.07.36,20,20,0,0,1-3.85.55c-1.14.09-1.42,1.87-1.42,1.87s.09,1.36.19.77a1.85,1.85,0,0,1,1.23-1.36c.69-.27,2.57.32,4,.32s2.29-1.23,3.16-.09.23,1.77-1.05,2.59-2.43.63-1.42.82,1.42.77,2.11.73.41-.14.83-.59.69-.54,1-1.27a8.63,8.63,0,0,0,.32-3.14A3.06,3.06,0,0,0,153.16,115.21Z"/><path class="cls-1" d="M159.44,112.42l-.43-.11.83.39A.57.57,0,0,0,159.44,112.42Z"/><path class="cls-1" d="M160.3,120a3.88,3.88,0,0,0-.35,1.22,4.12,4.12,0,0,1,1-.95c.74-.5,1.22.14,2.65.95s2.21,1.08,2.08,2.12-1.82,1.08-2.95,1.17-2.08-.9-1.78-.31.82.58,1.3,1,1,.36,2.17.31,1.39-.54,2.17-.67.83-.27.87-.9a11.27,11.27,0,0,0-.26-3.06,7.72,7.72,0,0,0-2.43-1.62c-1-.54-1-1.4-2.21-1.26S160.3,120,160.3,120Z"/><path class="cls-1" d="M126.45,195.13a6.39,6.39,0,0,1-2.86-6.16c.31-3,2.39-7.05,2.55-9s-.93-7-.93-11.38a50.55,50.55,0,0,1,1.31-10.42c.39-1.78.62-3.31.62-3.31s-2.48,7.05-2.55,12.52,1.16,9,.77,12.27-2.78,8.39-2.17,11.12,1.47,4.51,3.25,5.47a5.4,5.4,0,0,1,2.32,2.1A7.16,7.16,0,0,0,126.45,195.13Z"/><path class="cls-1" d="M158.06,153.89s-5.87,5.38-7.84,10.76-2.84,8.65-3.62,10.67a32.87,32.87,0,0,0-1.76,8,9.34,9.34,0,0,0,1,2.79,5.82,5.82,0,0,1,.39,1.83,3.29,3.29,0,0,0,.29-2c-.29-.77-1.37-1.73-1.08-3.75s.68-3.36,2.25-8.65,2.25-7.88,4.22-11.15A97.41,97.41,0,0,1,158.06,153.89Z"/><path class="cls-1" d="M129.93,198.85c.79,1.91,2.91,3.94,4.63,5.72s2.78,1,5,1.27,3.83-1.14,4.63-3.31a45.46,45.46,0,0,1,2.51-5.21s-2.11,3.49-4.63,4.07-4.23,2-6.21-.13-8.07-6.74-9-6.74A19.09,19.09,0,0,1,129.93,198.85Z"/><path class="cls-1" d="M161.63,152.91c.38.26,1.2-.91,1.39-1.82.16-.73.51-1.84.65-2.78a4.81,4.81,0,0,0,.05-.67,7.22,7.22,0,0,0-1.2-3.66,6.55,6.55,0,0,0-1.5-1.42s-.05,1.5-.1,3.05c0,1.37,0,2.78,0,3.25C161,149.87,160.78,152.33,161.63,152.91Z"/><path class="cls-1" d="M187.36,189.8a1.89,1.89,0,1,0,1.87,1.88A1.88,1.88,0,0,0,187.36,189.8Zm0,3.39a1.51,1.51,0,1,1,1.4-1.49A1.43,1.43,0,0,1,187.36,193.19Z"/><path class="cls-1" d="M187.78,191.75v0a.48.48,0,0,0,.38-.45.47.47,0,0,0-.2-.4,1,1,0,0,0-.63-.15,5.24,5.24,0,0,0-.71.06v1.89h.43v-.75h.2c.24,0,.35.09.39.29a1.48,1.48,0,0,0,.15.46h.45a1.66,1.66,0,0,1-.14-.46C188,192,188,191.8,187.78,191.75Zm-.51-.14h-.2v-.54a.93.93,0,0,1,.24,0c.27,0,.39.12.39.29S187.51,191.61,187.27,191.61Z"/></svg>